<?xml version="1.0" encoding="UTF-8"?>
<svg version="1.1" xmlns="http://www.w3.org/2000/svg" width="32" height="32">
<path d="M0 0 C3.23193357 1.62201909 5.36169892 3.72339785 7 7 C8.64650347 20.57588709 8.64650347 20.57588709 5.09765625 25.80078125 C-1.29996456 31.47257798 -6.39926419 32.39690964 -14.81640625 32.359375 C-19.43409732 31.83811417 -21.02012514 30.47652067 -24 27 C-26.28094455 22.4381109 -25.8221356 15.61204224 -24.31640625 10.828125 C-19.05995874 0.96955955 -10.52112889 -1.27697079 0 0 Z M-19.375 10.6875 C-21.46507989 14.94804747 -21.37233816 18.34577299 -21 23 C-20.67 23 -20.34 23 -20 23 C-19.90203125 22.39671875 -19.8040625 21.7934375 -19.703125 21.171875 C-18.79307967 16.30783959 -18.14550477 13.10912858 -14 10 C-11.36633324 8.68316662 -9.05591292 8.97312455 -6.16796875 9.0625 C-3.69142634 8.99110418 -1.41410886 8.53927737 1 8 C0.6390625 8.84304687 0.278125 9.68609375 -0.09375 10.5546875 C-0.78984375 12.19824219 -0.78984375 12.19824219 -1.5 13.875 C-1.9640625 14.96554687 -2.428125 16.05609375 -2.90625 17.1796875 C-4.12052456 19.80661929 -4.12052456 19.80661929 -4 22 C-0.98680106 20.96096588 0.00046911 19.99930443 1.8125 17.3125 C3.24660656 13.31209748 3.1526896 11.07283659 2 7 C0.1850431 4.65568067 -1.15330687 4.12877462 -4.0546875 3.6875 C-11.02021725 3.31225261 -14.74005703 5.44269611 -19.375 10.6875 Z M-10 11 C-11.51116808 12.61988751 -11.51116808 12.61988751 -12.75 14.75 C-13.19859375 15.44609375 -13.6471875 16.1421875 -14.109375 16.859375 C-15.16007332 19.38473764 -14.93134261 20.47856025 -14 23 C-9.55449344 19.73713248 -9.55449344 19.73713248 -7 15 C-7 13.68 -7 12.36 -7 11 C-7.99 11 -8.98 11 -10 11 Z M-10 23 C-10.66 23.66 -11.32 24.32 -12 25 C-14.625 25.625 -14.625 25.625 -17 26 C-16.67 26.66 -16.34 27.32 -16 28 C-11.36463727 29.2935896 -8.42109613 28.78949129 -4 27 C-4.61875 26.71125 -5.2375 26.4225 -5.875 26.125 C-8 25 -8 25 -10 23 Z " fill="#4E565A" transform="translate(25,0)"/>
</svg>
